# xmcd
#
# Track frame offsets:
#       150
#       13125
#       26850
#       41925
#       56175
#       71850
#       101100
#       111300
#       127800
#       141975
#       151275
#       164250
#       183225
#       196875
#       206625
#
# Disc length: 2939 seconds
#
# Revision: 1
# Processed by: cddbd v1.5PL3 Copyright (c) Steve Scherf et al.
# Submitted via: MusiCat 1.1
#
DISCID=e30b790f
DTITLE=Ray Charles - The Very Best Of Ray Charles
DYEAR=1900
DGENRE=
TTITLE0=I Got A Woman
TTITLE1=A Fool For You
TTITLE2=Drown In My Own Tears
TTITLE3=Hallelujah, I Love Her So
TTITLE4=Night Time Is The Right Time
TTITLE5=What'd I Say, Pt. 1-2
TTITLE6=Sticks And Stones
TTITLE7=Georgia On My Mind
TTITLE8=One Mint Julep
TTITLE9=Hit The Road Jack
TTITLE10=Unchain My Heart
TTITLE11=I Can't Stop Loving You
TTITLE12=You Are My Sunshine
TTITLE13=Busted
TTITLE14=Let's Go Get Stoned
EXTD=\n\n
EXTT0=
EXTT1=
EXTT2=
EXTT3=
EXTT4=
EXTT5=
EXTT6=
EXTT7=
EXTT8=
EXTT9=
EXTT10=
EXTT11=
EXTT12=
EXTT13=
EXTT14=
PLAYORDER=
